<svg width="0" height="0" class="hidden">
  <symbol xmlnsDc="http://purl.org/dc/elements/1.1/" xmlnsCc="http://creativecommons.org/ns#" xmlnsRdf="http://www.w3.org/1999/02/22-rdf-syntax-ns#" xmlnsSvg="http://www.w3.org/2000/svg" xmlns="http://www.w3.org/2000/svg" xmlnsSodipodi="http://sodipodi.sourceforge.net/DTD/sodipodi-0.dtd" xmlnsInkscape="http://www.inkscape.org/namespaces/inkscape" version="1.1" id="easy-to-use" inkscapeVersion="0.92.3 (2405546, 2018-03-11)" sodipodiDocname="15-Mantenance.svg" viewBox="0 0 16.933333 16.933333">
    <defs id="defs2"></defs>
    <sodipodi:namedview id="base" pagecolor="#ffffff" bordercolor="#666666" borderopacity="1.0" inkscapePageopacity="0.0" inkscapePageshadow="2" inkscapeZoom="5.656854" inkscapeCx="47.462574" inkscapeCy="4.968013" inkscapeDocumentUnits="px" inkscapeCurrentLayer="layer2" showgrid="false" inkscapeSnapSmoothNodes="true" inkscapeSnapPage="true" inkscapeSnapMidpoints="false" inkscapeSnapIntersectionPaths="true" inkscapeObjectPaths="true" inkscapeObjectNodes="true" units="px" inkscapeSnapBbox="true" inkscapeBboxPaths="false" inkscapeSnapBboxMidpoints="false" inkscapeWindowWidth="1920" inkscapeWindowHeight="1040" inkscapeWindowX="0" inkscapeWindowY="0" inkscapeWindowMaximized="1" inkscapeSnapGrids="true" inkscapeSnapToGuides="false" inkscapeSnapBboxEdgeMidpoints="false" inkscapeSnapNodes="true" inkscapeSnapOthers="false" inkscapeBboxNodes="true" showguides="true" inkscapeGuideBbox="true" inkscapeMeasureStart="0,0" inkscapeMeasureEnd="0,0" inkscapeSnapGlobal="true">
      <inkscape:grid type="xygrid" id="grid815" enabled="true"></inkscape:grid>
    </sodipodi:namedview>
    <metadata id="metadata5">
      <rdf:RDF>
        <cc:Work rdfAbout="">
          <dc:format>image/svg+xml</dc:format>
          <dc:type rdfResource="http://purl.org/dc/dcmitype/StillImage"></dc:type>
          <dc:title></dc:title>
        </cc:Work>
      </rdf:RDF>
    </metadata>
    <g inkscapeGroupmode="layer" id="layer2" inkscapeLabel="15-Mantenance">
      <path inkscapeConnectorCurvature="0" id="Icon_29" d="m 13.564196,4.9216267 -0.94413,0.6966 c -0.38475,-0.2235599 -0.80459,-0.4055398 -1.2454,-0.51987 l -0.17518,-1.1668499 c -0.002,-0.0662 -0.0565,-0.13311 -0.0822,-0.1560599 -0.0447,-0.0442 -0.120719,-0.0641 -0.148309,-0.0682 -0.30153,-0.005 -0.61023,-0.00201 -0.91416,-0.00201 h -0.8826306 -0.00201 -0.00201 c -0.0819,-0.007 -0.15269,0.0497 -0.1896499,0.0817 -0.0465,0.0483 -0.0624,0.10699 -0.0703,0.1426299 L 8.7335449,5.1010659 c -0.1729301,0.0371 -0.3600501,0.10443 -0.5322599,0.1751899 V 4.4979959 c 0,-0.43516 -0.35755,-0.7927099 -0.79272,-0.7927099 V 3.1761267 c 0.43517,0 0.79272,-0.3601299 0.79272,-0.7952999 v -1.05841 C 8.2012765,0.88724687 7.8437366,0.52917689 7.4085766,0.52917689 H 1.3223867 c -0.43516987,0 -0.79322985,0.35806998 -0.79322985,0.79323991 v 1.05833 c 0,0.43517 0.35805998,0.7953 0.79322985,0.7953 v 0.5291698 c -0.43516987,0 -0.79322985,0.35755 -0.79322985,0.7927102 v 1.0588498 c 0,0.43517 0.35805998,0.79272 0.79322985,0.79272 h 3.5403501 c -0.006,0.0655 0.0118,0.1311499 0.0512,0.18397 0.2349,0.3171201 0.4699301,0.6341401 0.70539,0.95084 -0.2310701,0.3788701 -0.4193701,0.8629899 -0.52555,1.2490199 -0.3877202,0.0607 -0.7760801,0.1171299 -1.1642701,0.1746699 -0.1292199,0.019899 -0.2245199,0.13125 -0.2242799,0.2620002 v 1.7673294 c -2.4e-4,0.13075 0.0951,0.24207 0.2242799,0.262 0.3894801,0.0575 0.7785499,0.11619 1.1678901,0.17467 0.1146299,0.42929 0.2893798,0.8692 0.5162399,1.25315 -0.2329701,0.31603 -0.4661,0.63166 -0.6997001,0.94723 -0.1238398,0.16632 -0.006,0.32491 0.0563,0.37827 0.4066199,0.40432 0.81192,0.81008 1.2175001,1.21543 0.0929,0.0932 0.2402199,0.10405 0.3457098,0.0253 0.3181001,-0.23434 0.6355001,-0.46961 0.9529199,-0.70486 0.43962,0.25332 0.86087,0.42297 1.24798,0.52296 l 0.17364,1.16634 c 0.019,0.13004 0.13057,0.22642 0.2619999,0.22634 h 1.7673307 c 0.0727,-3.97e-4 0.142019,-0.0307 0.191719,-0.0837 0.0201,-0.0213 0.0365,-0.0457 0.0486,-0.0724 0.0411,-0.0642 0.13457,-0.82885 0.19534,-1.23765 0.45476,-0.11542 0.87091,-0.31265 1.25419,-0.51728 l 0.94723,0.70022 c 0.0457,0.0342 0.10112,0.0526 0.15813,0.0527 0.0704,-2e-5 0.13793,-0.0281 0.18758,-0.078 l 1.25006,-1.247989 c 0.0932,-0.0929 0.10404,-0.24022 0.0253,-0.34572 l -0.70332,-0.948771 c 0.2226,-0.3848 0.40776,-0.81516 0.52038,-1.25109 l 0.94258,-0.14211 0.20309,-0.031 c 0.13861,-0.01 0.24604,-0.12511 0.24598,-0.26407 V 9.1699765 c -2.1e-4,-0.1387599 -0.10757,-0.2537798 -0.24598,-0.2635498 l -1.14825,-0.17208 c -0.11048,-0.4298302 -0.29042,-0.86776 -0.51728,-1.2541901 l 0.68884,-0.93121 c 0.0903,-0.1049398 0.0845,-0.2617499 -0.0134,-0.3596701 l -1.24899,-1.2500498 c -0.039,-0.0478 -0.11587,-0.0702 -0.15238,-0.0739 -0.10191,-0.0152 -0.16646,0.0321 -0.20254,0.0563 z M 1.3223867,1.0588669 H 2.6463368 V 2.6463668 H 1.3223867 c -0.1511599,0 -0.2635499,-0.11446 -0.2635499,-0.26562 v -1.05833 c 0,-0.15117 0.11239,-0.2635499 0.2635499,-0.2635499 z m 1.8536401,0 h 4.2322998 c 0.1511599,0 0.2656099,0.1123799 0.2656099,0.2635499 v 1.05833 c 0,0.15116 -0.11445,0.26562 -0.2656099,0.26562 H 3.1760268 Z M 1.8520767,1.5875168 c -0.14613,0 -0.26459,0.11845 -0.26459,0.26458 0,0.14613 0.11846,0.26458 0.26459,0.26458 0.14612,0 0.2645801,-0.11845 0.2645801,-0.26458 0,-0.14613 -0.1184601,-0.26458 -0.2645801,-0.26458 z m 2.11666,5.107e-4 c -0.14532,5.688e-4 -0.2629799,0.11823 -0.2635498,0.26355 -5.821e-4,0.14613 0.1174297,0.2650499 0.2635498,0.2656199 H 6.8786366 C 7.0257767,2.1180573 7.1453467,1.9987174 7.1447767,1.8515775 7.1441867,1.7052468 7.0249665,1.5871768 6.8786366,1.5880268 Z m -2.11718,1.5880193 H 6.8786366 V 3.7052166 H 1.8515567 Z m -0.52917,1.0562698 H 2.6463368 V 5.8203267 H 1.3223867 c -0.1511599,0 -0.2635499,-0.1123799 -0.2635499,-0.2635501 V 4.4979268 c 0,-0.1511601 0.11239,-0.2656102 0.2635499,-0.2656102 z m 1.8536401,0 h 4.2322998 c 0.1511599,0 0.2656099,0.1144501 0.2656099,0.2656102 v 1.0588498 c 0,0.1511702 -0.11445,0.2635501 -0.2656099,0.2635501 H 3.1760268 Z m 6.2223599,0.00101 0.6562903,0.00101 h 0.65422 l 0.16795,1.11311 c 0.0158,0.1073401 0.0954,0.1941801 0.201019,0.2191001 0.6122,0.1510199 1.00747,0.34563 1.42213,0.5916999 0.0916,0.0577 0.20907,0.0538 0.29663,-0.01 l 0.90847,-0.6738679 c 0.30969,0.3087902 0.62004,0.6173102 0.92759,0.9281102 l -0.66973,0.9038299 c -0.0645,0.0872 -0.0692,0.20502 -0.0119,0.29714 0.2741,0.43859 0.47198,0.9213001 0.58601,1.4257499 0.0244,0.1068602 0.11214,0.18763 0.22066,0.2030899 l 1.11724,0.16588 v 1.3105094 l -1.11311,0.16588 c -0.10792,0.0161 -0.19493,0.0967 -0.21911,0.20309 -0.11634,0.50399 -0.31768,0.98481 -0.59376,1.42214 -0.058,0.0925 -0.0533,0.21111 0.0119,0.29869 l 0.67179,0.90847 -0.92552,0.92553 -0.90641,-0.66973 c -0.0871,-0.0643 -0.20463,-0.069 -0.29662,-0.0119 -0.45635,0.27369 -0.94454,0.47654 -1.42627,0.58808 -0.105429,0.0249 -0.185069,0.11145 -0.201019,0.21859 l -0.16795,1.11724 H 9.3983769 l -0.1658901,-1.11518 c -0.0162,-0.10772 -0.0969,-0.19448 -0.2030801,-0.21859 -0.4181798,-0.0967 -0.8200998,-0.2555 -1.1973499,-0.46509 -0.0821,-0.0454 -0.1566399,-0.0856 -0.2227199,-0.12712 -0.0925,-0.058 -0.21112,-0.0533 -0.29869,0.0119 l -0.91002,0.67179 c -0.3086899,-0.3085 -0.6174499,-0.61693 -0.9260499,-0.92552 0.22269,-0.30254 0.4463799,-0.60435 0.66973,-0.90641 0.0643,-0.0871 0.069,-0.20462 0.011901,-0.29662 -0.2738901,-0.43827 -0.4719201,-0.91999 -0.5860201,-1.4242 -0.024101,-0.10624 -0.1108599,-0.18684 -0.21859,-0.20309 -0.3731498,-0.0557 -0.7462499,-0.11169 -1.1193097,-0.16795 V 9.3981884 c 0.3711498,-0.0557 0.7423898,-0.1108099 1.1136299,-0.16588 0.1085199,-0.015499 0.19627,-0.0962 0.2206598,-0.2030899 0.16017,-0.6662301 0.30221,-0.91752 0.5916901,-1.4221399 0.058,-0.0925 0.0533,-0.21111 -0.011901,-0.29869 C 5.9235069,7.0061387 5.6994469,6.7050786 5.475607,6.4035385 l 0.0517,-0.0543 h 1.88103 c 0.3215201,0 0.5995199,-0.19582 0.7234701,-0.47336 0.2962698,-0.1375399 0.5937099,-0.22739 0.8976198,-0.3059199 0.1062299,-0.024101 0.18684,-0.11087 0.2030801,-0.21859 z m -5.42551,0.52813 c -0.1471399,-5.821e-4 -0.2664799,0.119 -0.26562,0.2661298 5.821e-4,0.1461302 0.1194901,0.26412 0.26562,0.2635501 h 2.9057599 c 0.1463299,8.422e-4 0.26557,-0.1172244 0.2661401,-0.2635546 8.732e-4,-0.1473398 -0.1188,-0.2669998 -0.2661401,-0.2661298 z m -2.1208,0.00101 c -0.14613,0 -0.26459,0.11846 -0.26459,0.2645802 0,0.1461299 0.11846,0.2645899 0.26459,0.2645899 0.14612,0 0.2645801,-0.11846 0.2645801,-0.2645899 0,-0.1461202 -0.1184601,-0.2645802 -0.2645801,-0.2645802 z m 8.2026003,1.8526 c -1.8965003,0 -3.4395903,1.5430899 -3.4395903,3.4395804 0,1.896499 1.54309,3.439589 3.4395903,3.439589 1.896489,0 3.439579,-1.54309 3.439579,-3.439589 0,-1.8964905 -1.54309,-3.4395804 -3.439579,-3.4395804 z m 2.910409,3.4395804 c 0,1.236239 -0.76723,2.286709 -1.85156,2.709399 v -1.14205 c 0.65663,-0.38073 1.05538,-1.07724 1.05626,-1.8329595 -9.53e-4,-0.8160699 -0.47139,-1.5602201 -1.208709,-1.9099601 -0.0389,-0.018701 -0.0819,-0.0276 -0.12506,-0.025799 -0.14165,0.007 -0.25287,0.1237999 -0.25218,0.2656099 v 1.4066401 c 0,0.1511498 -0.11446,0.2635499 -0.26561,0.2635499 H 9.7890567 c -0.1511602,0 -0.2635502,-0.1124001 -0.2635502,-0.2635499 V 8.1188767 c 7.938e-4,-0.1951501 -0.2027399,-0.32399 -0.3787899,-0.23978 -0.73713,0.3496498 -1.2080499,1.0941097 -1.20923,1.9099598 0.00101,0.7462695 0.40244,1.4588195 1.0578201,1.8298595 l 0.00101,1.14567 c -1.0846599,-0.42253 -1.85157,-1.47344 -1.85157,-2.709909 0,-1.6105105 1.2993901,-2.9099004 2.9099153,-2.9099154 1.610524,-1.5e-5 2.910424,1.2993749 2.910424,2.9098854 z m -1.85156,-1.4469404 c 0.14981,0.1386399 0.52052,0.52334 0.52916,1.1813299 -7.15e-4,0.6131095 -0.35451,1.1707395 -0.908469,1.4334995 -0.0917,0.0439 -0.1502,0.13652 -0.15038,0.23823 v 1.45366 c -0.17175,0.0314 -0.34816,0.0506 -0.52916,0.0506 -0.1810106,0 -0.3574204,-0.0192 -0.5291705,-0.0506 v -1.45368 c 2.501e-4,-0.10293 -0.0592,-0.19667 -0.15245,-0.2403 -0.5538099,-0.26269 -0.90552,-0.81848 -0.9064,-1.4314294 -0.006,-0.5122201 0.2798101,-0.9745501 0.5296802,-1.18081 v 0.9172599 c 0,0.44069 0.3575598,0.7927095 0.79272,0.7927095 h 0.5291703 c 0.44318,0 0.795299,-0.3575493 0.795299,-0.7927095 z" sodipodiNodetypes="cccccccccccccccccccccccccccccccccccccccccccccccccccccccccccccccccccccccccccccccccccccccccccccccccccccccccccccccccccccccccccccccccccccccccccccccccccccccccccccccccccccccccccccccccccccccccccccccccccccccccccccccccccccccccc" inkscapeExportFilename="/home/wanzabuyumna/@WANZ_DESIGN/Export/Style Line/Icon 29/Icon 29.png" inkscapeExportXdpi="102.4" inkscapeExportYdpi="102.4"></path>
    </g>
  </symbol>
  <symbol version="1.1" id="fast-website" xmlns="http://www.w3.org/2000/svg" xmlns:xlink="http://www.w3.org/1999/xlink" x="0px" y="0px" xml:space="preserve" viewBox="0 0 64 64">
    <g id="Guide">
      <g></g>
      <g></g>
      <g></g>
      <g></g>
      <g></g>
      <g></g>
      <g></g>
      <g></g>
      <g></g>
      <g></g>
      <g></g>
      <g></g>
      <g></g>
      <g></g>
      <g></g>
      <g></g>
      <g></g>
      <g></g>
      <g></g>
      <g></g>
      <g></g>
      <g></g>
      <g></g>
      <g></g>
      <g></g>
      <g></g>
      <g></g>
      <g></g>
      <g></g>
      <g></g>
      <g></g>
      <g></g>
      <g></g>
      <g></g>
      <g></g>
      <g></g>
    </g>
    <rect x="31" y="46" width="2" height="2"></rect>
    <rect x="27" y="46" width="2" height="2"></rect>
    <rect x="35" y="46" width="2" height="2"></rect>
    <rect x="6" y="4" width="2" height="2"></rect>
    <rect x="10" y="4" width="2" height="2"></rect>
    <rect x="14" y="4" width="2" height="2"></rect>
    <path d="M11,32h8c0.552,0,1,0.448,1,1s-0.448,1-1,1h-3c-1.654,0-3,1.346-3,3s1.346,3,3,3h15c0.266,0,0.521-0.106,0.709-0.295
	C31.966,39.447,38,33.322,38,28c0-5.01-2.617-8-7-8s-7,2.99-7,8c0,3.69,2.898,7.761,4.762,10H16c-0.552,0-1-0.448-1-1s0.448-1,1-1h3
	c1.654,0,3-1.346,3-3s-1.346-3-3-3h-5.762C15.102,27.761,18,23.69,18,20c0-5.01-2.617-8-7-8s-7,2.99-7,8
	c0,5.322,6.034,11.447,6.291,11.705C10.479,31.894,10.734,32,11,32z M31,22c3.225,0,5,2.131,5,6c0,3.523-3.471,7.811-5,9.529
	c-1.529-1.719-5-6.006-5-9.529C26,24.131,27.775,22,31,22z M11,14c3.225,0,5,2.131,5,6c0,3.523-3.471,7.811-5,9.529
	C9.471,27.811,6,23.523,6,20C6,16.131,7.775,14,11,14z"></path>
    <path d="M14,19c0-1.654-1.346-3-3-3s-3,1.346-3,3s1.346,3,3,3S14,20.654,14,19z M10,19c0-0.552,0.448-1,1-1s1,0.448,1,1
	s-0.448,1-1,1S10,19.552,10,19z"></path>
    <path d="M34,27c0-1.654-1.346-3-3-3s-3,1.346-3,3s1.346,3,3,3S34,28.654,34,27z M30,27c0-0.552,0.448-1,1-1s1,0.448,1,1
	s-0.448,1-1,1S30,27.552,30,27z"></path>
    <path d="M59,0H5C2.243,0,0,2.368,0,5.125V47c0,2.757,2.243,5,5,5h17.557l-2.25,6H14c-0.553,0-1,0.447-1,1c0,2.757,2.243,5,5,5h28
	c2.757,0,5-2.243,5-5c0-0.553-0.447-1-1-1h-6.307l-2.25-6H59c2.757,0,5-2.243,5-5V5.125C64,2.368,61.757,0,59,0z M5,2h54
	c1.654,0,3,1.471,3,3.125V8H4v2h58v32H2V5.125C2,3.471,3.346,2,5,2z M46,62H18c-1.304,0-2.416-0.836-2.829-2H21h22h5.829
	C48.416,61.164,47.304,62,46,62z M41.557,58H22.443l2.25-6h14.613L41.557,58z M59,50H40H24H5c-1.654,0-3-1.346-3-3v-3h60v3
	C62,48.654,60.654,50,59,50z"></path>
    <path d="M41,24h7c0.553,0,1-0.447,1-1v-4c0-0.553-0.447-1-1-1h-7c-0.553,0-1,0.447-1,1v4C40,23.553,40.447,24,41,24z M42,20h5v2h-5
	V20z"></path>
    <path d="M52,24h7c0.553,0,1-0.447,1-1v-4c0-0.553-0.447-1-1-1h-7c-0.553,0-1,0.447-1,1v4C51,23.553,51.447,24,52,24z M53,20h5v2h-5
	V20z"></path>
    <rect x="40" y="26" width="20" height="2"></rect>
    <rect x="40" y="30" width="20" height="2"></rect>
    <rect x="40" y="34" width="20" height="2"></rect>
    <rect x="40" y="13" width="3" height="2"></rect>
    <rect x="45" y="13" width="4" height="2"></rect>
    <rect x="51" y="13" width="9" height="2"></rect>
  </symbol>
  <symbol xmlns="http://www.w3.org/2000/svg" viewBox="0 0 128 128" id="github">
    <g fill="#181616">
      <path fill-rule="evenodd" d="M64 1.512c-23.493 0-42.545 19.047-42.545 42.545 0 18.797 12.19 34.745 29.095 40.37 2.126.394 2.907-.923 2.907-2.047 0-1.014-.04-4.366-.058-7.92-11.837 2.573-14.334-5.02-14.334-5.02-1.935-4.918-4.724-6.226-4.724-6.226-3.86-2.64.29-2.586.29-2.586 4.273.3 6.523 4.385 6.523 4.385 3.794 6.504 9.953 4.623 12.38 3.536.383-2.75 1.485-4.628 2.702-5.69-9.45-1.075-19.384-4.724-19.384-21.026 0-4.645 1.662-8.44 4.384-11.42-.442-1.072-1.898-5.4.412-11.26 0 0 3.572-1.142 11.7 4.363 3.395-.943 7.035-1.416 10.65-1.432 3.616.017 7.258.49 10.658 1.432 8.12-5.504 11.688-4.362 11.688-4.362 2.316 5.86.86 10.187.418 11.26 2.728 2.978 4.378 6.774 4.378 11.42 0 16.34-9.953 19.938-19.427 20.99 1.526 1.32 2.886 3.91 2.886 7.88 0 5.692-.048 10.273-.048 11.674 0 1.13.766 2.458 2.922 2.04 16.896-5.632 29.07-21.574 29.07-40.365C106.545 20.56 87.497 1.512 64 1.512z" clip-rule="evenodd"></path>
      <path d="M37.57 62.596c-.095.212-.428.275-.73.13-.31-.14-.482-.427-.382-.64.09-.216.424-.277.733-.132.31.14.486.43.38.642zm-.524-.388M39.293 64.52c-.203.187-.6.1-.87-.198-.278-.297-.33-.694-.124-.884.208-.188.593-.1.87.197.28.3.335.693.123.884zm-.406-.437M40.97 66.968c-.26.182-.687.012-.95-.367-.262-.377-.262-.83.005-1.013.264-.182.684-.018.95.357.262.385.262.84-.005 1.024zm0 0M43.268 69.336c-.233.257-.73.188-1.093-.163-.372-.343-.475-.83-.242-1.087.237-.257.736-.185 1.102.163.37.342.482.83.233 1.086zm0 0M46.44 70.71c-.104.334-.582.485-1.064.344-.482-.146-.796-.536-.7-.872.1-.336.582-.493 1.067-.342.48.144.795.53.696.87zm0 0M49.92 70.965c.013.35-.396.642-.902.648-.508.012-.92-.272-.926-.618 0-.354.4-.642.908-.65.506-.01.92.272.92.62zm0 0M53.16 70.414c.06.342-.29.694-.793.787-.494.092-.95-.12-1.014-.46-.06-.35.297-.7.79-.792.503-.088.953.118 1.017.466zm0 0"></path>
    </g>
    <path fill="#100E0F" d="M24.855 108.302h-10.7a.5.5 0 0 0-.5.5v5.232a.5.5 0 0 0 .5.5h4.173v6.5s-.937.32-3.53.32c-3.056 0-7.327-1.116-7.327-10.508 0-9.393 4.448-10.63 8.624-10.63 3.614 0 5.17.636 6.162.943.31.094.6-.216.6-.492l1.193-5.055a.468.468 0 0 0-.192-.39c-.403-.288-2.857-1.66-9.058-1.66-7.144 0-14.472 3.038-14.472 17.65 0 14.61 8.39 16.787 15.46 16.787 5.854 0 9.405-2.502 9.405-2.502.146-.08.162-.285.162-.38v-16.316a.5.5 0 0 0-.5-.5zM79.506 94.81H73.48a.5.5 0 0 0-.498.503l.002 11.644h-9.392V95.313a.5.5 0 0 0-.497-.503H57.07a.5.5 0 0 0-.498.503v31.53c0 .277.224.503.498.503h6.025a.5.5 0 0 0 .497-.504v-13.486h9.392l-.016 13.486c0 .278.224.504.5.504h6.038a.5.5 0 0 0 .497-.504v-31.53c0-.278-.22-.502-.497-.502zM32.34 95.527c-2.144 0-3.884 1.753-3.884 3.923 0 2.167 1.74 3.925 3.884 3.925 2.146 0 3.885-1.758 3.885-3.925 0-2.17-1.74-3.923-3.885-3.923zM35.296 105.135H29.29c-.276 0-.522.284-.522.56v20.852c0 .613.382.795.876.795h5.41c.595 0 .74-.292.74-.805v-6.346-14.553a.5.5 0 0 0-.498-.502zM102.902 105.182h-5.98a.5.5 0 0 0-.496.504v15.46s-1.52 1.11-3.675 1.11-2.727-.977-2.727-3.088v-13.482a.5.5 0 0 0-.497-.504h-6.068a.502.502 0 0 0-.498.504v14.502c0 6.27 3.495 7.804 8.302 7.804 3.944 0 7.124-2.18 7.124-2.18s.15 1.15.22 1.285c.07.136.247.273.44.273l3.86-.017a.502.502 0 0 0 .5-.504l-.003-21.166a.504.504 0 0 0-.5-.502zM119.244 104.474c-3.396 0-5.706 1.515-5.706 1.515V95.312a.5.5 0 0 0-.497-.503H107a.5.5 0 0 0-.5.503v31.53a.5.5 0 0 0 .5.503h4.192c.19 0 .332-.097.437-.268.103-.17.254-1.454.254-1.454s2.47 2.34 7.148 2.34c5.49 0 8.64-2.784 8.64-12.502s-5.03-10.988-8.428-10.988zm-2.36 17.764c-2.073-.063-3.48-1.004-3.48-1.004v-9.985s1.388-.85 3.09-1.004c2.153-.193 4.228.458 4.228 5.594 0 5.417-.935 6.486-3.837 6.398zM53.195 122.12c-.263 0-.937.107-1.63.107-2.22 0-2.973-1.032-2.973-2.368v-8.866h4.52a.5.5 0 0 0 .5-.504v-4.856a.5.5 0 0 0-.5-.502h-4.52l-.007-5.97c0-.227-.116-.34-.378-.34h-6.16c-.238 0-.367.106-.367.335v6.17s-3.087.745-3.295.805a.5.5 0 0 0-.36.48v3.877a.5.5 0 0 0 .497.503h3.158v9.328c0 6.93 4.86 7.61 8.14 7.61 1.497 0 3.29-.48 3.586-.59.18-.067.283-.252.283-.453l.004-4.265a.51.51 0 0 0-.5-.502z"></path>
  </symbol>
  <symbol xmlns="http://www.w3.org/2000/svg" xmlns:xlink="http://www.w3.org/1999/xlink" version="1.1" id="green-tick" x="0px" y="0px" xml:space="preserve" viewBox="0 0 511.999 511.999">
    <path d="M502.87,75.474c-12.201-12.204-31.952-12.205-44.154-0.001L163.89,370.299L53.284,259.693  c-12.201-12.204-31.952-12.205-44.154-0.001c-12.173,12.174-12.173,31.981,0,44.153L141.814,436.53  c12.199,12.198,31.953,12.2,44.153,0L502.87,119.626C515.042,107.453,515.042,87.645,502.87,75.474z"></path>
    <path d="M502.87,75.474c-12.201-12.204-31.952-12.205-44.154-0.001L243.511,290.678v88.306L502.87,119.626  C515.042,107.453,515.042,87.645,502.87,75.474z"></path>
    <g></g>
    <g></g>
    <g></g>
    <g></g>
    <g></g>
    <g></g>
    <g></g>
    <g></g>
    <g></g>
    <g></g>
    <g></g>
    <g></g>
    <g></g>
    <g></g>
    <g></g>
  </symbol>
  <symbol id="growth" xmlns="http://www.w3.org/2000/svg" viewBox="0 0 100 100">
    <title>testМонтажная область 14</title>
    <path d="M88,77.5H83.5V16A1.5,1.5,0,0,0,82,14.5H68A1.5,1.5,0,0,0,66.5,16V77.5h-8V39A1.5,1.5,0,0,0,57,37.5H43A1.5,1.5,0,0,0,41.5,39V77.5h-8V61A1.5,1.5,0,0,0,32,59.5H18A1.5,1.5,0,0,0,16.5,61V77.5H12a1.5,1.5,0,0,0,0,3H88a1.5,1.5,0,0,0,0-3Zm-18.5-60h11v60h-11Zm-25,23h11v37h-11Zm-25,22h11v15h-11Z"></path>
    <path d="M13,49.5a1.5,1.5,0,0,0,1.06-.44L55.5,7.62V14a1.5,1.5,0,0,0,3,0V4a1.49,1.49,0,0,0-.11-.55v0a1.5,1.5,0,0,0-.82-.82h0A1.49,1.49,0,0,0,57,2.5H47a1.5,1.5,0,0,0,0,3h6.38L11.94,46.94A1.5,1.5,0,0,0,13,49.5Z"></path>
  </symbol>
  <symbol fill="none" xmlns="http://www.w3.org/2000/svg" viewBox="0 0 64 64" id="heart">
    <path d="M32.0499 58.9001C31.6566 58.8929 31.2809 58.7355 30.9999 58.4601C30.9999 58.4601 8.22992 35.8301 7.68992 35.1601C-0.590079 26.1601 2.07992 15.8801 8.05992 10.1601C13.7999 4.6401 23.5699 2.3601 31.9999 9.7901C34.403 7.53783 37.4038 6.02516 40.6437 5.43287C43.8835 4.84058 47.2254 5.19372 50.2699 6.4501C52.9976 7.49781 55.4197 9.21146 57.3155 11.4349C59.2113 13.6583 60.5206 16.3209 61.124 19.1798C61.7274 22.0388 61.6058 25.0033 60.7702 27.8032C59.9346 30.6032 58.4115 33.1495 56.3399 35.2101L33.1099 58.4601C32.8271 58.7388 32.447 58.8965 32.0499 58.9001ZM20.2499 8.1201C16.4675 8.16966 12.8485 9.66953 10.1399 12.3101C5.13992 17.0601 2.97992 25.6101 9.88992 33.1301C9.99992 33.2301 27.5099 50.7501 31.9999 55.2801L54.2199 33.0901C55.5799 31.7381 56.6584 30.1299 57.393 28.3585C58.1276 26.5872 58.5039 24.6878 58.4999 22.7701C58.5352 19.8294 57.6578 16.9502 55.9887 14.5288C54.3196 12.1075 51.9408 10.2633 49.1799 9.2501C46.463 8.12912 43.4653 7.87819 40.5997 8.53188C37.7342 9.18558 35.1419 10.7117 33.1799 12.9001C33.0459 13.0538 32.882 13.1787 32.6984 13.2673C32.5147 13.356 32.315 13.4065 32.1113 13.4158C31.9076 13.4252 31.7041 13.3931 31.5131 13.3217C31.322 13.2503 31.1475 13.1409 30.9999 13.0001C29.6313 11.5018 27.973 10.2968 26.1252 9.45804C24.2774 8.61924 22.2787 8.16408 20.2499 8.1201Z" fill="black"></path>
  </symbol>
  <symbol xmlns="http://www.w3.org/2000/svg" viewBox="0 0 24 24" id="menu">
    <defs></defs>
    <title>37.menu</title>
    <g id="_37.menu">
      <rect x="1" y="1" width="22" height="22" rx="3" ry="3"></rect>
      <line x1="6" y1="7" x2="18" y2="7"></line>
      <line x1="6" y1="12" x2="18" y2="12"></line>
      <line x1="6" y1="17" x2="18" y2="17"></line>
    </g>
  </symbol>
  <symbol xmlns="http://www.w3.org/2000/svg" viewBox="0 0 24 24" id="quotes">
    <path fill="none" d="M0 0h24v24H0z"></path>
    <path d="M4.583 17.321C3.553 16.227 3 15 3 13.011c0-3.5 2.457-6.637 6.03-8.188l.893 1.378c-3.335 1.804-3.987 4.145-4.247 5.621.537-.278 1.24-.375 1.929-.311 1.804.167 3.226 1.648 3.226 3.489a3.5 3.5 0 0 1-3.5 3.5c-1.073 0-2.099-.49-2.748-1.179zm10 0C13.553 16.227 13 15 13 13.011c0-3.5 2.457-6.637 6.03-8.188l.893 1.378c-3.335 1.804-3.987 4.145-4.247 5.621.537-.278 1.24-.375 1.929-.311 1.804.167 3.226 1.648 3.226 3.489a3.5 3.5 0 0 1-3.5 3.5c-1.073 0-2.099-.49-2.748-1.179z" fill="#000"></path>
  </symbol>
  <symbol fill="none" xmlns="http://www.w3.org/2000/svg" viewBox="0 0 64 64" id="search">
    <path d="M61.06 58.94L40.06 37.94C43.7065 33.7441 45.5817 28.2964 45.2902 22.745C44.9987 17.1936 42.5634 11.9722 38.4975 8.18119C34.4317 4.3902 29.0528 2.32576 23.4946 2.42296C17.9364 2.52016 12.6331 4.77141 8.70224 8.70224C4.77141 12.6331 2.52016 17.9364 2.42296 23.4946C2.32576 29.0528 4.3902 34.4317 8.18119 38.4975C11.9722 42.5634 17.1936 44.9987 22.745 45.2902C28.2964 45.5817 33.7441 43.7065 37.94 40.06L58.94 61.06C59.2213 61.3409 59.6025 61.4987 60 61.4987C60.3975 61.4987 60.7788 61.3409 61.06 61.06C61.2003 60.9215 61.3117 60.7564 61.3877 60.5744C61.4638 60.3925 61.5029 60.1972 61.5029 60C61.5029 59.8028 61.4638 59.6076 61.3877 59.4256C61.3117 59.2437 61.2003 59.0786 61.06 58.94V58.94ZM10.89 36.94C8.31031 34.3674 6.55192 31.0871 5.83748 27.5145C5.12304 23.942 5.48467 20.2378 6.8766 16.8708C8.26852 13.5039 10.6281 10.6257 13.6568 8.60054C16.6854 6.57539 20.2467 5.49439 23.89 5.49439C27.5333 5.49439 31.0947 6.57539 34.1233 8.60054C37.1519 10.6257 39.5116 13.5039 40.9035 16.8708C42.2954 20.2378 42.657 23.942 41.9426 27.5145C41.2282 31.0871 39.4698 34.3674 36.89 36.94C33.4351 40.3755 28.7603 42.303 23.888 42.3012C19.0157 42.2993 14.3424 40.3681 10.89 36.93V36.94Z" fill="black"></path>
  </symbol>
  <symbol version="1.1" id="settings" xmlns="http://www.w3.org/2000/svg" xmlns:xlink="http://www.w3.org/1999/xlink" x="0px" y="0px" xml:space="preserve" viewBox="0 0 32 32">
    <line x1="3" y1="11" x2="29" y2="11"></line>
    <line x1="5" y1="8" x2="7" y2="8"></line>
    <line x1="8" y1="8" x2="10" y2="8"></line>
    <line x1="11" y1="8" x2="13" y2="8"></line>
    <path d="M8.8,27H3V5h26v22l-5.8,0c0.3-0.1,0.6-0.1,0.9-0.1c0.1-0.6,0.2-1.3,0.2-1.9c0-0.7-0.1-1.3-0.2-1.9
	c-1,0.1-2-0.3-2.5-1.3c-0.5-0.9-0.4-2,0.2-2.8c-0.9-0.9-2.1-1.6-3.4-2c-0.4,0.9-1.3,1.6-2.4,1.6s-2-0.7-2.4-1.6
	c-1.3,0.4-2.4,1.1-3.4,2c0.6,0.8,0.7,1.9,0.2,2.8c-0.5,0.9-1.6,1.4-2.5,1.3c-0.1,0.6-0.2,1.3-0.2,1.9c0,0.7,0.1,1.3,0.2,1.9
	C8.2,26.9,8.5,26.9,8.8,27L8.8,27z"></path>
    <circle cx="16" cy="25" r="3"></circle>
  </symbol>
  <symbol fill="none" xmlns="http://www.w3.org/2000/svg" viewBox="0 0 64 64" id="snap">
    <path d="M56 2.5H8C6.54212 2.50264 5.14471 3.08295 4.11383 4.11383C3.08295 5.14471 2.50264 6.54212 2.5 8V56C2.50264 57.4579 3.08295 58.8553 4.11383 59.8862C5.14471 60.917 6.54212 61.4974 8 61.5H56C57.4579 61.4974 58.8553 60.917 59.8862 59.8862C60.917 58.8553 61.4974 57.4579 61.5 56V8C61.4974 6.54212 60.917 5.14471 59.8862 4.11383C58.8553 3.08295 57.4579 2.50264 56 2.5V2.5ZM8 5.5H56C56.663 5.5 57.2989 5.76339 57.7678 6.23223C58.2366 6.70107 58.5 7.33696 58.5 8V46.83L46 34.32C45.719 34.0386 45.3377 33.8804 44.94 33.88C44.5423 33.8804 44.161 34.0386 43.88 34.32L35.6 42.61L20.91 27.93C20.7714 27.7897 20.6064 27.6783 20.4244 27.6023C20.2424 27.5263 20.0472 27.4871 19.85 27.4871C19.6528 27.4871 19.4576 27.5263 19.2756 27.6023C19.0936 27.6783 18.9286 27.7897 18.79 27.93L5.5 41.22V8C5.5 7.33696 5.76339 6.70107 6.23223 6.23223C6.70107 5.76339 7.33696 5.5 8 5.5V5.5ZM5.5 56V45.46L19.85 31.11L47.24 58.5H8C7.33696 58.5 6.70107 58.2366 6.23223 57.7678C5.76339 57.2989 5.5 56.663 5.5 56V56ZM56 58.5H51.48L37.71 44.73L44.93 37.5L58.5 51.07V56C58.5 56.663 58.2366 57.2989 57.7678 57.7678C57.2989 58.2366 56.663 58.5 56 58.5V58.5Z" fill="black"></path>
    <path d="M33.1501 24.7601C34.578 24.7601 35.9739 24.3366 37.1613 23.5433C38.3486 22.7499 39.274 21.6223 39.8205 20.303C40.3669 18.9838 40.5099 17.5321 40.2313 16.1315C39.9527 14.731 39.2651 13.4445 38.2554 12.4348C37.2456 11.425 35.9591 10.7374 34.5586 10.4588C33.1581 10.1802 31.7064 10.3232 30.3871 10.8697C29.0678 11.4161 27.9402 12.3415 27.1468 13.5289C26.3535 14.7162 25.9301 16.1121 25.9301 17.5401C25.9327 19.4541 26.6942 21.289 28.0477 22.6425C29.4011 23.9959 31.236 24.7574 33.1501 24.7601V24.7601ZM33.1501 13.3201C33.9847 13.3201 34.8006 13.5676 35.4946 14.0313C36.1885 14.495 36.7294 15.154 37.0488 15.9251C37.3682 16.6963 37.4518 17.5448 37.289 18.3634C37.1261 19.182 36.7242 19.9339 36.134 20.5241C35.5439 21.1142 34.7919 21.5162 33.9733 21.679C33.1547 21.8418 32.3062 21.7582 31.5351 21.4388C30.764 21.1194 30.105 20.5786 29.6413 19.8846C29.1776 19.1906 28.9301 18.3747 28.9301 17.5401C28.9301 16.9859 29.0392 16.4371 29.2513 15.9251C29.4634 15.4132 29.7742 14.9479 30.1661 14.5561C30.5579 14.1642 31.0231 13.8534 31.5351 13.6413C32.0471 13.4292 32.5959 13.3201 33.1501 13.3201V13.3201Z" fill="black"></path>
  </symbol>
  <symbol id="support24-7" xmlns="http://www.w3.org/2000/svg" viewBox="0 0 128 128">
    <defs></defs>
    <title>a</title>
    <path d="M102.48648,63.23686a1.80375,1.80375,0,0,0-1.54669-1.15107l-5.68325-.37762a46.75472,46.75472,0,1,0-46.7433,47.42674,3.597,3.597,0,1,0,0-7.194A39.56726,39.56726,0,1,1,88.04449,61.20454l-6.45671-.43163a1.81248,1.81248,0,0,0-1.6726.89926,1.78194,1.78194,0,0,0,.054,1.90642L86.6776,73.6502l1.6546,2.46406a.48564.48564,0,0,0,.12591.1438,1.68754,1.68754,0,0,0,1.20508.64744.4971.4971,0,0,0,.1618.018,1.79279,1.79279,0,0,0,.80935-.19781A1.82528,1.82528,0,0,0,91.12,76.384l2.69777-2.76967,8.27311-8.471A1.78045,1.78045,0,0,0,102.48648,63.23686Z"></path>
    <circle cx="48.51313" cy="32.15897" r="3.59702"></circle>
    <circle cx="48.51313" cy="93.30836" r="3.59702"></circle>
    <circle cx="17.93843" cy="62.73367" r="3.59702"></circle>
    <path d="M70.19538,41.87163a3.59607,3.59607,0,0,0-5.08466.14929L47.69565,60.48421l-7.8203-6.6184A3.59659,3.59659,0,1,0,35.228,59.35619l10.42223,8.82043c.0719.06092.15149.10516.22657.15939.08288.05983.16323.12349.24962.17553a3.52079,3.52079,0,0,0,.33525.16883c.08442.0393.166.08463.25259.117a3.56665,3.56665,0,0,0,.41176.11724c.06982.0168.13765.04226.20824.05489a3.60672,3.60672,0,0,0,.63789.05895l.00077-.00011.001.00011a3.60764,3.60764,0,0,0,.73624-.07838c.07772-.01625.15094-.04885.22756-.07014a3.54223,3.54223,0,0,0,.47993-.15818c.09243-.04051.17706-.09792.26642-.14644a3.54016,3.54016,0,0,0,.38783-.22986c.08946-.06455.16894-.14413.25314-.21768.08837-.077.18376-.14172.26587-.22866L70.34467,46.95629A3.59677,3.59677,0,0,0,70.19538,41.87163Z"></path>
    <path d="M91.79958,81.34855a1.98227,1.98227,0,0,0-1.98205,1.98205V94.323H84.53386a1.0009,1.0009,0,0,1-1.1323-1.13219V83.3306a1.98189,1.98189,0,1,0-3.96377,0v9.8602a4.9346,4.9346,0,0,0,5.09608,5.096h5.28368V105.983a1.982,1.982,0,1,0,3.964,0V83.3306A1.98211,1.98211,0,0,0,91.79958,81.34855Z"></path>
    <path d="M75.09013,104.00119H66.20449l8.427-8.4269A8.3333,8.3333,0,0,0,62.84644,83.78923l-1.409,1.409A1.9817,1.9817,0,0,0,64.24,88.00076l1.409-1.409a4.3699,4.3699,0,0,1,6.18,6.18l-11.81031,11.81a1.98187,1.98187,0,0,0,1.40135,3.38341H75.09013a1.98194,1.98194,0,0,0,0-3.96388Z"></path>
    <path d="M125.91247,81.50069a1.97954,1.97954,0,0,0-1.64615-.87884H109.81719a1.98189,1.98189,0,0,0,0,3.96377h11.49175l-8.77916,21.37028a1.98144,1.98144,0,1,0,3.66563,1.50586L126.0993,83.3565A1.98041,1.98041,0,0,0,125.91247,81.50069Z"></path>
    <path d="M103.8189,76.95545a1.9809,1.9809,0,0,0-2.28568,1.62178L96.17577,110.074a1.98184,1.98184,0,0,0,3.90768.6639l5.35744-31.49679A1.98163,1.98163,0,0,0,103.8189,76.95545Z"></path>
  </symbol>
  <symbol version="1.1" id="Wordpress" xmlns="http://www.w3.org/2000/svg" xmlns:xlink="http://www.w3.org/1999/xlink" x="0px" y="0px" xml:space="preserve" viewBox="0 0 512 512">
    <path d="M256,0C114.848,0,0,114.848,0,256s114.848,256,256,256s256-114.848,256-256S397.152,0,256,0z M256,32
	c45.216,0,87.264,13.568,122.496,36.704C366.24,75.52,354.88,89.856,354.88,120.32c0,16.192,11.04,34.976,23.808,56.736
	c15.328,26.112,34.336,58.592,29.568,82.048c-5.248,15.52-18.56,50.752-32.992,88.352l-66.144-190.08
	c1.344-0.352,2.848-0.576,4.128-0.992c8.384-2.784,12.896-11.84,10.112-20.224c-2.816-8.384-11.84-12.832-20.256-10.112
	c-13.632,4.544-38.304,4.448-53.12,4.416h-4.448h-4.448c-14.72,0.032-39.488,0.128-53.12-4.416
	c-8.288-2.816-17.376,1.728-20.192,10.112s1.728,17.44,10.112,20.224c6.752,2.272,14.72,3.488,22.848,4.384l39.36,102.336
	l-37.216,93.888L139.296,158.08c2.336-0.544,4.832-0.96,6.976-1.696c8.384-2.784,12.928-11.84,10.112-20.224
	s-11.84-12.928-20.224-10.112c-13.6,4.544-38.336,4.416-53.152,4.416h-4.384c-2.88,0-5.248-0.224-7.68-0.416
	C111.296,70.912,179.168,32,256,32z M32,256c0-25.152,4.352-49.28,12.032-71.872l98.176,264.48C76.384,409.536,32,337.952,32,256z
	 M192.288,470.656L257.056,307.2l62.848,163.424C299.648,476.64,278.208,480,256,480C233.856,480,212.512,476.64,192.288,470.656z
	 M370.528,448.128c20.736-53.152,56.448-145.216,67.168-176.352l0.416,0.128c0.448-1.28,0.928-2.944,1.248-4.896
	c3.616-10.048,6.688-19.232,9.152-26.976c7.904-24.992,12.928-46.976,15.552-66.432C474.24,199.136,480,226.88,480,256
	C480,337.632,435.968,408.992,370.528,448.128z"></path>
    <g></g>
    <g></g>
    <g></g>
    <g></g>
    <g></g>
    <g></g>
    <g></g>
    <g></g>
    <g></g>
    <g></g>
    <g></g>
    <g></g>
    <g></g>
    <g></g>
    <g></g>
  </symbol>
  <symbol fill="none" xmlns="http://www.w3.org/2000/svg" viewBox="0 0 64 64" id="www">
    <path d="M32 2.5C26.1655 2.5 20.4619 4.23014 15.6107 7.47165C10.7594 10.7131 6.97835 15.3204 4.74557 20.7108C2.51278 26.1013 1.92858 32.0327 3.06685 37.7552C4.20511 43.4776 7.01471 48.734 11.1404 52.8596C15.266 56.9853 20.5224 59.7949 26.2448 60.9332C31.9673 62.0714 37.8988 61.4872 43.2892 59.2544C48.6796 57.0217 53.2869 53.2406 56.5284 48.3893C59.7699 43.5381 61.5 37.8345 61.5 32C61.4921 24.1786 58.3815 16.6797 52.8509 11.1491C47.3203 5.61852 39.8215 2.50794 32 2.5V2.5ZM52.4 48.89C50.0514 46.635 47.3489 44.7804 44.4 43.4C45.0754 39.6378 45.4101 35.8223 45.4 32C45.4101 28.1777 45.0754 24.3622 44.4 20.6C47.3476 19.2174 50.0498 17.3631 52.4 15.11C56.339 19.8571 58.4949 25.8315 58.4949 32C58.4949 38.1685 56.339 44.1429 52.4 48.89V48.89ZM21.64 32C21.6289 28.562 21.9132 25.1293 22.49 21.74C25.5523 22.7821 28.7653 23.3125 32 23.31C35.2347 23.3125 38.4477 22.7821 41.51 21.74C42.0868 25.1293 42.3712 28.562 42.36 32C42.3664 35.4412 42.082 38.8767 41.51 42.27C35.3467 40.1947 28.6733 40.1947 22.51 42.27C21.9313 38.8773 21.6402 35.4417 21.64 32V32ZM38.64 6.36C43.0287 7.5085 47.0477 9.76769 50.31 12.92C48.345 14.8046 46.1022 16.3763 43.66 17.58C42.8 13.5356 41.1074 9.71456 38.69 6.36H38.64ZM40.9 18.78C35.1404 20.8104 28.8597 20.8104 23.1 18.78C25.05 10.58 28.65 5.5 32 5.5C35.35 5.5 39 10.58 40.9 18.78ZM20.29 17.58C17.8478 16.3763 15.605 14.8046 13.64 12.92C16.9023 9.76769 20.9213 7.5085 25.31 6.36C22.8749 9.71036 21.1652 13.5317 20.29 17.58V17.58ZM25.29 57.64C20.9013 56.4915 16.8823 54.2323 13.62 51.08C15.5899 49.1967 17.8358 47.6253 20.28 46.42C21.1537 50.4706 22.8672 54.2929 25.31 57.64H25.29ZM23.1 45.22C28.8597 43.1896 35.1404 43.1896 40.9 45.22C39 53.42 35.35 58.5 32 58.5C28.65 58.5 25.05 53.42 23.1 45.22ZM43.7 46.42C46.1443 47.6253 48.3902 49.1967 50.36 51.08C47.0977 54.2323 43.0787 56.4915 38.69 57.64C41.1257 54.2912 42.8324 50.469 43.7 46.42V46.42ZM11.59 15.11C13.9553 17.3676 16.6747 19.2222 19.64 20.6C18.9646 24.3622 18.6299 28.1777 18.64 32C18.6299 35.8223 18.9646 39.6378 19.64 43.4C16.6912 44.7804 13.9886 46.635 11.64 48.89C7.70106 44.1429 5.54512 38.1685 5.54512 32C5.54512 25.8315 7.70106 19.8571 11.64 15.11H11.59Z" fill="black"></path>
  </symbol>
  <symbol fill="none" xmlns="http://www.w3.org/2000/svg" viewBox="0 0 64 64" id="calender">
    <path d="M56 6.5H46.29V4C46.29 3.60218 46.132 3.22064 45.8507 2.93934C45.5694 2.65804 45.1878 2.5 44.79 2.5C44.3922 2.5 44.0106 2.65804 43.7293 2.93934C43.448 3.22064 43.29 3.60218 43.29 4V6.5H33.5V4C33.5 3.60218 33.342 3.22064 33.0607 2.93934C32.7794 2.65804 32.3978 2.5 32 2.5C31.6022 2.5 31.2206 2.65804 30.9393 2.93934C30.658 3.22064 30.5 3.60218 30.5 4V6.5H20.71V4C20.71 3.60218 20.552 3.22064 20.2707 2.93934C19.9894 2.65804 19.6078 2.5 19.21 2.5C18.8122 2.5 18.4306 2.65804 18.1493 2.93934C17.868 3.22064 17.71 3.60218 17.71 4V6.5H8C6.54212 6.50264 5.14471 7.08295 4.11383 8.11383C3.08295 9.14471 2.50264 10.5421 2.5 12V56C2.50264 57.4579 3.08295 58.8553 4.11383 59.8862C5.14471 60.917 6.54212 61.4974 8 61.5H56C57.4579 61.4974 58.8553 60.917 59.8862 59.8862C60.917 58.8553 61.4974 57.4579 61.5 56V12C61.4974 10.5421 60.917 9.14471 59.8862 8.11383C58.8553 7.08295 57.4579 6.50264 56 6.5V6.5ZM8 9.5H17.71V12C17.71 12.3978 17.868 12.7794 18.1493 13.0607C18.4306 13.342 18.8122 13.5 19.21 13.5C19.6078 13.5 19.9894 13.342 20.2707 13.0607C20.552 12.7794 20.71 12.3978 20.71 12V9.5H30.5V12C30.5 12.3978 30.658 12.7794 30.9393 13.0607C31.2206 13.342 31.6022 13.5 32 13.5C32.3978 13.5 32.7794 13.342 33.0607 13.0607C33.342 12.7794 33.5 12.3978 33.5 12V9.5H43.29V12C43.29 12.3978 43.448 12.7794 43.7293 13.0607C44.0106 13.342 44.3922 13.5 44.79 13.5C45.1878 13.5 45.5694 13.342 45.8507 13.0607C46.132 12.7794 46.29 12.3978 46.29 12V9.5H56C56.663 9.5 57.2989 9.76339 57.7678 10.2322C58.2366 10.7011 58.5 11.337 58.5 12V19.28C55.7632 20.5725 52.802 21.323 49.78 21.49C46.9055 21.5572 44.0639 20.8675 41.54 19.49C38.6109 17.9181 35.3231 17.1358 32 17.22C28.6729 17.1395 25.3819 17.9252 22.45 19.5C19.928 20.8824 17.0851 21.5724 14.21 21.5C11.1906 21.3288 8.23294 20.575 5.5 19.28V12C5.5 11.337 5.76339 10.7011 6.23223 10.2322C6.70107 9.76339 7.33696 9.5 8 9.5V9.5ZM56 58.5H8C7.33696 58.5 6.70107 58.2366 6.23223 57.7678C5.76339 57.2989 5.5 56.663 5.5 56V22.6C8.20765 23.9254 11.1965 24.574 14.21 24.49C17.534 24.5711 20.8219 23.7853 23.75 22.21C26.277 20.8313 29.1222 20.1415 32 20.21C34.8745 20.1428 37.7161 20.8325 40.24 22.21C43.1681 23.7853 46.456 24.5711 49.78 24.49C52.7967 24.5736 55.7887 23.9251 58.5 22.6V56C58.5 56.663 58.2366 57.2989 57.7678 57.7678C57.2989 58.2366 56.663 58.5 56 58.5V58.5Z" fill="black"></path>
    <path d="M19.86 28.5H12C11.6022 28.5 11.2206 28.658 10.9393 28.9393C10.658 29.2206 10.5 29.6022 10.5 30V37.86C10.5 38.2578 10.658 38.6394 10.9393 38.9207C11.2206 39.202 11.6022 39.36 12 39.36H19.86C20.2578 39.36 20.6394 39.202 20.9207 38.9207C21.202 38.6394 21.36 38.2578 21.36 37.86V30C21.36 29.6022 21.202 29.2206 20.9207 28.9393C20.6394 28.658 20.2578 28.5 19.86 28.5ZM18.36 36.36H13.5V31.5H18.36V36.36Z" fill="black"></path>
    <path d="M35.9299 28.5H28.0699C27.6721 28.5 27.2906 28.658 27.0093 28.9393C26.728 29.2206 26.5699 29.6022 26.5699 30V37.86C26.5699 38.2578 26.728 38.6394 27.0093 38.9207C27.2906 39.202 27.6721 39.36 28.0699 39.36H35.9299C36.3278 39.36 36.7093 39.202 36.9906 38.9207C37.2719 38.6394 37.4299 38.2578 37.4299 37.86V30C37.4299 29.6022 37.2719 29.2206 36.9906 28.9393C36.7093 28.658 36.3278 28.5 35.9299 28.5ZM34.4299 36.36H29.5699V31.5H34.4299V36.36Z" fill="black"></path>
    <path d="M52 28.5H44.14C43.7422 28.5 43.3607 28.658 43.0794 28.9393C42.798 29.2206 42.64 29.6022 42.64 30V37.86C42.64 38.2578 42.798 38.6394 43.0794 38.9207C43.3607 39.202 43.7422 39.36 44.14 39.36H52C52.3978 39.36 52.7794 39.202 53.0607 38.9207C53.342 38.6394 53.5 38.2578 53.5 37.86V30C53.5 29.6022 53.342 29.2206 53.0607 28.9393C52.7794 28.658 52.3978 28.5 52 28.5ZM50.5 36.36H45.64V31.5H50.5V36.36Z" fill="black"></path>
    <path d="M19.86 43.6401H12C11.6022 43.6401 11.2206 43.7982 10.9393 44.0795C10.658 44.3608 10.5 44.7423 10.5 45.1401V53.0001C10.5 53.398 10.658 53.7795 10.9393 54.0608C11.2206 54.3421 11.6022 54.5001 12 54.5001H19.86C20.2578 54.5001 20.6394 54.3421 20.9207 54.0608C21.202 53.7795 21.36 53.398 21.36 53.0001V45.1401C21.36 44.7423 21.202 44.3608 20.9207 44.0795C20.6394 43.7982 20.2578 43.6401 19.86 43.6401ZM18.36 51.5001H13.5V46.6401H18.36V51.5001Z" fill="black"></path>
    <path d="M35.9299 43.6401H28.0699C27.6721 43.6401 27.2906 43.7982 27.0093 44.0795C26.728 44.3608 26.5699 44.7423 26.5699 45.1401V53.0001C26.5699 53.398 26.728 53.7795 27.0093 54.0608C27.2906 54.3421 27.6721 54.5001 28.0699 54.5001H35.9299C36.3278 54.5001 36.7093 54.3421 36.9906 54.0608C37.2719 53.7795 37.4299 53.398 37.4299 53.0001V45.1401C37.4299 44.7423 37.2719 44.3608 36.9906 44.0795C36.7093 43.7982 36.3278 43.6401 35.9299 43.6401ZM34.4299 51.5001H29.5699V46.6401H34.4299V51.5001Z" fill="black"></path>
    <path d="M52 43.6401H44.14C43.7422 43.6401 43.3607 43.7982 43.0794 44.0795C42.798 44.3608 42.64 44.7423 42.64 45.1401V53.0001C42.64 53.398 42.798 53.7795 43.0794 54.0608C43.3607 54.3421 43.7422 54.5001 44.14 54.5001H52C52.3978 54.5001 52.7794 54.3421 53.0607 54.0608C53.342 53.7795 53.5 53.398 53.5 53.0001V45.1401C53.5 44.7423 53.342 44.3608 53.0607 44.0795C52.7794 43.7982 52.3978 43.6401 52 43.6401ZM50.5 51.5001H45.64V46.6401H50.5V51.5001Z" fill="black"></path>
  </symbol>
</svg>